<svg xmlns="http://www.w3.org/2000/svg" xmlns:xlink="http://www.w3.org/1999/xlink" viewBox="0 0 56 76.25" version="1.1" x="0px" y="0px"><title>4 -Woman Handbag- (Solid)</title><desc>Created with Sketch.</desc><g stroke="none" stroke-width="1" fill="none" fill-rule="evenodd"><g transform="translate(-481.000000, -345.000000)" fill="#000000"><g transform="translate(481.000000, 345.000000)"><polygon points="26.0361 47.009 30.0361 47.009 30.0361 44.009 30.0361 41.009 26.0361 41.009 26.0361 44.009"/><path d="M5.0922,30.1843 C5.4812,25.3903 8.3882,2.0093 28.0362,2.0093 C37.1162,2.0093 43.7382,6.8323 47.7182,16.3473 C50.1482,22.1563 50.8122,28.0383 50.9812,30.1843 C50.6062,30.0813 50.2192,30.0093 49.8152,30.0093 L6.2572,30.0093 C5.8532,30.0093 5.4672,30.0813 5.0922,30.1843 L5.0922,30.1843 Z M24.0362,40.0093 C24.0362,39.4563 24.4842,39.0093 25.0362,39.0093 L31.0362,39.0093 C31.5882,39.0093 32.0362,39.4563 32.0362,40.0093 L32.0362,43.0093 L52.0362,43.0093 C53.2272,43.0093 54.1462,42.5303 54.8102,41.8123 L54.2632,34.1503 C54.1852,33.0553 53.6992,32.0803 52.9732,31.3473 C53.0152,31.2313 53.0402,31.1063 53.0352,30.9763 C53.0252,30.6663 51.7292,0.0093 28.0362,0.0093 C4.3422,0.0093 3.0472,30.6663 3.0362,30.9763 C3.0322,31.1063 3.0562,31.2313 3.0982,31.3473 C2.3732,32.0803 1.8872,33.0553 1.8092,34.1503 L1.1762,43.0093 L24.0362,43.0093 L24.0362,40.0093 Z"/><path d="M54.9824,44.2224 C54.1224,44.7254 53.1224,45.0094 52.0364,45.0094 L32.0364,45.0094 L32.0364,48.0094 C32.0364,48.5614 31.5884,49.0094 31.0364,49.0094 L25.0364,49.0094 C24.4834,49.0094 24.0364,48.5614 24.0364,48.0094 L24.0364,45.0094 L1.0364,45.0094 L1.0334,45.0094 L0.3034,55.2324 C0.2154,56.4624 0.6474,57.6854 1.4874,58.5884 C2.3284,59.4914 3.5174,60.0094 4.7514,60.0094 L51.3204,60.0094 C52.5544,60.0094 53.7444,59.4914 54.5854,58.5884 C55.4254,57.6854 55.8574,56.4624 55.7694,55.2324 L54.9824,44.2224 Z"/></g></g></g><text x="0" y="76" fill="#000000" font-size="5px" font-weight="bold" font-family="'Helvetica Neue', Helvetica, Arial-Unicode, Arial, Sans-serif">Created by Ben Davis</text><text x="0" y="81" fill="#000000" font-size="5px" font-weight="bold" font-family="'Helvetica Neue', Helvetica, Arial-Unicode, Arial, Sans-serif">from the Noun Project</text></svg>