<svg xmlns="http://www.w3.org/2000/svg" xmlns:xlink="http://www.w3.org/1999/xlink" version="1.1" x="0px" y="0px" viewBox="0 0 72 90" enable-background="new 0 0 72 72" xml:space="preserve"><g><path fill="#000000" d="M36.7,35.6v0.8h0c-0.1,1.1-5.2,2.1-11.6,2.1s-11.5-0.9-11.6-2.1h0v-0.8C6.1,39,1,45.6,1,53.2   c0,7.6,5,14.2,12.5,17.6c0.2,0.1,0.5,0.2,0.8,0.2h21.6c0.3,0,0.6-0.1,0.8-0.2c7.4-3.4,12.5-10,12.5-17.6   C49.2,45.6,44.1,39,36.7,35.6z"/><path fill="#000000" d="M51.3,1c-9.6,0-17.5,3.9-19.3,9.1c-0.2,0.4-0.6,0.8-1.2,0.8h-1.6c-0.5,0-0.8-0.3-1-0.6   c-0.3-0.6-0.7-1.1-1.3-1.5c-0.3-0.2-0.5-0.5-0.5-0.8V5.6c0-0.8-0.8-1.5-1.8-1.5c-1,0-1.8,0.7-1.8,1.5V8c0,0.3-0.2,0.6-0.5,0.8   c-1.1,0.8-1.8,2.1-1.8,3.6s0.7,2.8,1.8,3.6c0.3,0.2,0.5,0.5,0.5,0.8v3.7c0,0.4-0.4,0.7-0.9,0.7h-4.2c-0.5,0-0.9,0.3-0.9,0.7v11.7h0   c0,0.8,3.5,1.4,7.7,1.4c4.2,0,7.6-0.6,7.7-1.4h0V21.9c0-0.4-0.4-0.7-0.9-0.7h-4.2c-0.5,0-0.9-0.3-0.9-0.7v-3.7   c0-0.3,0.2-0.6,0.5-0.8c0.5-0.4,1-0.9,1.3-1.5c0.2-0.4,0.6-0.6,1-0.6h1.6c0.6,0,1,0.3,1.2,0.8c1.8,5.2,9.8,9.1,19.3,9.1   c10.9,0,19.7-5.1,19.7-11.4S62.2,1,51.3,1z"/></g><text x="0" y="87" fill="#000000" font-size="5px" font-weight="bold" font-family="'Helvetica Neue', Helvetica, Arial-Unicode, Arial, Sans-serif">Created by Creative Stall</text><text x="0" y="92" fill="#000000" font-size="5px" font-weight="bold" font-family="'Helvetica Neue', Helvetica, Arial-Unicode, Arial, Sans-serif">from the Noun Project</text></svg>