<svg xmlns="http://www.w3.org/2000/svg" viewBox="0 0 1000 1250" version="1.1" x="0px" y="0px"><g><path fill="#000000" opacity="1.00" d=" M 249.33 55.09 C 248.70 46.10 257.00 37.82 265.93 38.06 C 285.61 38.00 305.30 38.09 324.99 38.02 C 333.27 37.50 341.09 43.30 344.44 50.64 C 367.34 94.97 377.00 146.02 371.65 195.64 C 403.95 190.11 437.87 194.56 467.56 208.43 C 479.19 214.18 490.50 220.71 500.49 229.04 C 529.71 205.34 567.46 192.46 605.09 193.37 C 612.86 193.55 620.63 194.24 628.31 195.46 C 622.96 144.90 633.03 92.80 657.02 47.96 C 660.85 42.07 667.74 37.50 674.98 38.02 C 694.66 38.09 714.34 38.01 734.02 38.06 C 742.94 37.79 751.26 46.04 750.67 55.03 C 750.57 59.69 747.53 63.45 745.36 67.33 C 724.44 103.63 713.96 145.83 715.35 187.70 C 716.08 208.71 719.67 229.63 726.12 249.65 C 729.02 258.93 733.80 268.00 733.20 278.00 C 732.99 282.08 729.72 285.05 728.86 288.95 C 706.27 371.60 683.63 454.24 661.04 536.89 C 706.97 584.98 739.81 645.47 754.70 710.31 C 761.79 740.98 764.97 772.57 764.02 804.03 C 763.96 810.17 759.63 815.90 753.82 817.77 C 750.41 819.09 746.73 818.02 743.23 818.63 C 686.40 830.54 632.63 856.75 588.34 894.31 C 566.85 912.47 547.75 933.43 531.22 956.19 C 528.48 960.08 523.85 962.57 519.07 962.52 C 506.73 962.35 494.38 962.26 482.05 962.60 C 477.25 962.54 472.55 960.16 469.79 956.21 C 453.40 933.64 434.49 912.84 413.22 894.78 C 368.83 856.98 314.85 830.60 257.80 818.63 C 254.56 818.04 251.21 818.97 248.02 818.02 C 241.85 816.44 237.07 810.53 236.99 804.13 C 234.48 725.59 258.18 646.56 303.13 582.13 C 314.19 566.11 326.54 551.00 339.96 536.89 C 316.19 449.98 292.42 363.06 268.61 276.16 C 267.56 271.63 267.47 266.69 269.36 262.37 C 282.86 227.79 287.61 189.86 283.11 153.01 C 279.24 121.28 268.68 90.32 252.06 62.99 C 250.62 60.59 249.39 57.94 249.33 55.09 M 288.92 68.00 C 304.58 100.36 313.49 136.01 314.59 171.96 C 315.78 205.84 309.91 239.85 298.03 271.57 C 299.81 275.54 300.68 279.82 301.85 283.99 C 324.75 367.71 347.67 451.41 370.56 535.13 C 371.76 539.49 370.91 544.40 368.06 547.95 C 365.61 550.97 364.44 554.85 361.65 557.62 C 328.97 591.84 303.42 632.86 287.27 677.35 C 274.14 713.36 267.23 751.59 266.79 789.91 C 327.08 803.04 384.11 830.99 431.27 870.80 C 452.95 888.84 472.10 909.78 489.35 932.05 C 495.79 933.00 502.49 932.16 509.04 932.47 C 512.04 933.07 513.29 929.87 514.91 928.02 C 531.00 907.32 549.11 888.13 569.19 871.25 C 616.46 831.20 673.69 803.09 734.21 789.90 C 733.95 768.97 731.80 748.06 727.75 727.53 C 715.28 664.24 684.34 604.79 639.82 558.13 C 636.78 555.29 635.51 551.22 632.98 548.01 C 630.09 544.43 629.22 539.48 630.45 535.08 C 653.42 451.10 676.41 367.13 699.38 283.15 C 700.18 280.10 700.80 276.95 702.33 274.16 C 700.86 266.50 697.30 259.43 695.45 251.86 C 677.67 191.43 683.43 124.58 711.08 68.00 C 700.84 68.01 690.60 67.98 680.36 68.01 C 659.48 110.38 651.96 159.38 660.19 205.96 C 660.83 210.89 662.57 216.01 660.96 220.93 C 659.11 226.89 653.22 231.29 646.97 231.30 C 641.26 231.60 636.85 227.12 631.26 226.66 C 590.14 216.90 544.53 228.60 513.55 257.44 C 506.88 264.68 494.17 264.70 487.49 257.48 C 454.84 227.04 405.86 215.70 363.11 228.43 C 360.13 229.50 357.31 231.27 354.05 231.29 C 347.74 231.70 341.50 227.62 339.32 221.70 C 337.25 216.60 339.13 211.12 339.82 205.94 C 348.04 159.37 340.52 110.38 319.64 68.01 C 309.40 67.97 299.16 68.01 288.92 68.00 Z"/></g><text x="0" y="1015" fill="#000000" font-size="5px" font-weight="bold" font-family="'Helvetica Neue', Helvetica, Arial-Unicode, Arial, Sans-serif">Created by LSE Designs</text><text x="0" y="1020" fill="#000000" font-size="5px" font-weight="bold" font-family="'Helvetica Neue', Helvetica, Arial-Unicode, Arial, Sans-serif">from the Noun Project</text></svg>