<svg xmlns="http://www.w3.org/2000/svg" viewBox="0 0 500 625" version="1.1" x="0px" y="0px"><g><path fill="#000000" opacity="1.00" d=" M 47.19 121.15 C 58.23 107.58 71.19 95.55 85.56 85.58 C 111.38 128.23 139.58 169.46 170.09 208.89 C 192.01 237.02 215.21 264.25 240.97 288.96 C 254.75 302.03 269.21 314.50 285.06 325.01 C 292.82 329.74 302.50 329.09 311.00 327.00 C 324.00 323.59 335.96 317.04 347.02 309.52 C 378.01 317.80 408.93 326.44 439.39 336.53 C 449.09 339.93 458.97 343.09 468.04 348.00 C 476.49 352.99 479.30 363.76 478.08 372.98 C 461.71 382.11 444.43 389.60 426.59 395.34 C 408.55 401.18 389.84 404.55 371.17 407.58 C 344.95 411.64 318.52 414.44 292.03 415.98 C 275.28 416.06 258.22 413.27 243.00 406.04 C 237.36 403.33 232.04 399.89 227.47 395.61 C 217.00 386.05 207.86 375.16 199.09 364.06 C 184.65 345.72 171.15 326.66 156.36 308.59 C 145.83 295.89 134.73 283.37 121.23 273.74 C 107.34 263.99 91.08 257.05 74.01 255.93 C 71.33 308.13 68.68 360.33 66.00 412.53 C 59.01 412.54 52.02 412.52 45.03 412.54 C 44.05 364.02 42.07 315.52 38.52 267.12 C 36.36 238.11 22.62 211.17 21.90 181.98 C 22.39 159.41 33.35 138.44 47.19 121.15 Z"/></g><text x="0" y="515" fill="#000000" font-size="5px" font-weight="bold" font-family="'Helvetica Neue', Helvetica, Arial-Unicode, Arial, Sans-serif">Created by LSE Designs</text><text x="0" y="520" fill="#000000" font-size="5px" font-weight="bold" font-family="'Helvetica Neue', Helvetica, Arial-Unicode, Arial, Sans-serif">from the Noun Project</text></svg>