<svg xmlns="http://www.w3.org/2000/svg" viewBox="0 0 500 625" version="1.1" x="0px" y="0px"><g><path fill="#000000" opacity="1.00" d=" M 93.05 48.03 C 130.81 76.91 169.83 104.31 211.17 127.86 C 223.06 134.51 235.13 140.90 247.70 146.19 C 268.28 154.08 291.45 151.91 311.99 145.03 C 319.01 188.34 326.00 231.67 333.00 274.99 C 303.69 307.02 274.31 338.99 245.00 371.02 C 253.71 384.37 263.69 397.11 276.02 407.31 C 283.70 413.73 292.83 418.71 302.84 420.15 C 310.80 421.33 319.08 421.13 326.86 418.97 C 336.64 409.07 345.14 397.68 351.11 385.07 C 355.99 374.04 358.35 362.02 359.03 350.02 C 377.45 361.70 395.79 373.52 414.27 385.10 C 414.45 391.75 413.06 398.31 412.12 404.86 C 411.18 411.54 408.65 417.85 406.02 424.01 C 423.81 423.72 441.94 421.58 458.38 414.40 C 463.02 412.46 467.54 410.26 472.04 408.01 C 475.70 412.24 478.92 417.85 477.56 423.65 C 476.30 428.80 471.31 431.62 466.94 433.87 C 459.66 437.36 451.95 440.22 443.93 441.37 C 417.44 445.75 390.75 449.09 363.94 450.62 C 344.66 451.62 325.20 451.96 306.05 449.13 C 294.11 447.57 283.46 441.27 274.04 434.09 C 255.59 419.63 240.56 401.41 226.24 382.99 C 213.78 366.94 202.06 350.33 190.09 333.91 C 178.92 318.63 167.63 303.29 154.06 290.01 C 145.33 281.52 135.84 273.46 124.65 268.43 C 118.69 265.90 111.79 263.79 105.43 266.06 C 103.09 324.38 100.47 382.68 97.99 441.00 C 91.15 440.93 84.30 441.14 77.47 440.88 C 77.53 396.13 75.44 351.31 69.81 306.90 C 68.29 295.60 66.62 284.32 64.30 273.15 C 59.36 245.13 44.89 219.23 25.08 198.98 C 22.61 195.86 21.45 191.16 23.63 187.58 C 25.35 184.66 28.58 182.99 31.82 182.36 C 35.38 181.21 38.33 184.28 41.46 185.49 C 83.78 206.67 123.41 232.71 162.00 259.99 C 179.64 245.47 197.39 231.07 214.95 216.46 C 198.32 208.61 182.40 199.24 167.56 188.39 C 153.80 178.34 141.85 166.11 129.99 153.95 C 110.38 133.45 92.02 111.79 74.35 89.62 C 72.17 86.78 69.82 84.09 67.86 81.10 C 78.48 71.97 86.49 60.31 93.05 48.03 Z"/></g><text x="0" y="515" fill="#000000" font-size="5px" font-weight="bold" font-family="'Helvetica Neue', Helvetica, Arial-Unicode, Arial, Sans-serif">Created by LSE Designs</text><text x="0" y="520" fill="#000000" font-size="5px" font-weight="bold" font-family="'Helvetica Neue', Helvetica, Arial-Unicode, Arial, Sans-serif">from the Noun Project</text></svg>