<svg xmlns="http://www.w3.org/2000/svg" viewBox="0 0 500 625" version="1.1" x="0px" y="0px"><g><path fill="#000000" opacity="1.00" d=" M 102.49 32.29 C 103.22 30.38 104.70 28.28 107.00 28.37 C 111.73 28.55 115.70 31.47 119.52 33.94 C 118.01 40.96 116.50 47.98 115.00 55.00 C 162.68 62.01 210.35 69.00 258.03 76.01 C 260.05 84.18 261.45 92.55 261.46 100.99 C 261.44 108.86 259.59 116.60 257.04 124.01 C 208.67 118.00 160.31 112.00 111.94 105.99 C 107.02 122.18 107.02 139.49 109.58 156.10 C 112.35 175.03 113.25 194.18 113.63 213.30 C 113.72 222.20 113.93 231.14 113.16 240.02 C 134.89 249.44 154.30 263.48 172.14 278.92 C 181.47 287.18 190.78 295.65 198.22 305.73 C 217.40 331.37 231.17 360.47 248.88 387.08 C 260.67 405.28 276.66 421.16 296.24 430.82 C 302.47 433.83 309.10 436.09 315.96 437.08 C 329.66 406.70 343.34 376.32 357.03 345.95 C 363.51 346.45 370.03 347.46 376.10 349.91 C 383.00 352.77 388.89 357.60 394.02 362.96 C 385.33 387.81 376.68 412.66 368.00 437.50 C 387.06 432.86 406.06 427.92 424.74 421.90 C 439.62 417.24 453.15 408.92 465.07 398.98 C 469.58 403.70 473.64 409.31 474.75 415.89 C 475.52 421.51 473.47 427.03 471.08 432.01 C 470.43 433.63 469.03 434.71 467.55 435.54 C 448.11 447.01 426.95 455.51 405.07 461.03 C 374.58 467.86 343.27 471.52 312.01 470.98 C 301.32 470.24 290.74 467.97 280.62 464.48 C 266.56 459.64 255.14 449.35 245.91 437.99 C 241.54 432.80 238.61 426.64 235.14 420.86 C 220.50 395.89 205.06 371.36 188.24 347.79 C 178.74 334.49 168.75 321.52 157.66 309.50 C 146.31 297.34 132.06 286.94 115.46 283.68 C 109.59 282.62 102.80 281.78 97.73 285.67 C 89.79 291.37 87.30 301.62 86.45 310.83 C 82.37 351.77 81.27 392.93 80.17 434.04 C 79.89 446.85 79.65 459.67 79.51 472.50 C 74.01 472.34 68.51 472.17 63.01 472.00 C 61.31 419.57 58.19 367.17 53.04 314.97 C 51.94 306.02 51.83 296.83 48.75 288.26 C 43.65 272.69 32.36 260.03 27.43 244.40 C 25.75 239.13 25.36 233.55 25.75 228.06 C 28.13 181.38 50.18 136.82 82.98 103.97 C 83.24 94.92 84.05 85.86 86.03 77.01 C 88.10 67.10 93.52 58.21 99.96 50.53 C 100.17 44.40 100.28 38.10 102.49 32.29 Z"/></g><text x="0" y="515" fill="#000000" font-size="5px" font-weight="bold" font-family="'Helvetica Neue', Helvetica, Arial-Unicode, Arial, Sans-serif">Created by LSE Designs</text><text x="0" y="520" fill="#000000" font-size="5px" font-weight="bold" font-family="'Helvetica Neue', Helvetica, Arial-Unicode, Arial, Sans-serif">from the Noun Project</text></svg>