<svg xmlns="http://www.w3.org/2000/svg" viewBox="0 0 1000 1250" version="1.1" x="0px" y="0px"><g><path fill="#000000" opacity="1.00" d=" M 162.73 116.00 C 162.55 107.94 169.93 100.92 177.93 101.23 C 235.62 101.16 293.31 101.23 351.00 101.20 C 358.01 101.03 365.01 101.59 372.02 101.80 C 406.71 103.78 440.74 116.45 468.16 137.83 C 481.59 148.18 493.26 160.72 503.08 174.52 C 526.01 145.05 558.84 123.56 594.97 114.21 C 612.56 109.39 630.88 108.24 649.04 108.19 C 707.03 108.23 765.02 108.16 823.00 108.23 C 830.68 107.92 837.91 114.34 838.22 122.06 C 838.16 150.71 838.23 179.37 838.18 208.03 C 838.09 211.40 839.65 214.68 838.98 218.06 C 838.24 223.22 834.59 227.82 829.74 229.74 C 826.03 231.28 821.92 230.71 818.02 230.80 C 787.76 230.80 757.51 230.77 727.26 230.82 C 705.19 311.51 683.10 392.19 661.04 472.88 C 710.19 524.33 744.30 590.01 757.58 659.95 C 762.62 686.30 764.84 713.22 764.02 740.04 C 763.97 746.46 759.21 752.40 753.02 754.01 C 749.97 754.96 746.76 754.07 743.66 754.55 C 685.94 766.54 631.37 793.35 586.65 831.75 C 567.97 847.73 551.16 865.87 536.26 885.41 C 532.84 889.55 530.36 894.97 525.17 897.21 C 520.73 899.32 515.73 898.25 511.02 898.39 C 501.68 898.49 492.33 898.19 483.00 898.61 C 477.88 898.81 472.71 896.43 469.78 892.19 C 453.40 869.64 434.51 848.86 413.25 830.81 C 368.72 792.90 314.56 766.43 257.30 754.54 C 254.20 754.09 251.01 754.95 247.97 754.01 C 241.78 752.40 237.02 746.44 236.98 740.01 C 234.48 660.29 258.93 580.06 305.24 515.15 C 315.69 500.18 327.41 486.14 339.96 472.89 C 317.26 389.86 294.54 306.84 271.81 223.82 C 242.19 223.77 212.56 223.80 182.93 223.80 C 178.81 223.72 174.44 224.32 170.60 222.46 C 165.39 220.13 161.86 214.64 161.83 208.94 C 161.99 206.25 162.85 203.65 162.82 200.94 C 162.73 172.63 162.90 144.31 162.73 116.00 M 192.76 131.16 C 192.75 152.05 192.76 172.95 192.76 193.84 C 223.18 193.85 253.59 193.83 284.01 193.85 C 290.02 193.55 296.03 197.03 298.47 202.57 C 300.41 206.23 299.38 210.50 300.33 214.39 C 323.72 299.97 347.16 385.54 370.56 471.12 C 371.76 475.49 370.91 480.41 368.05 483.97 C 365.60 486.98 364.45 490.85 361.66 493.61 C 329.87 526.90 304.82 566.62 288.62 609.72 C 274.62 646.78 267.24 686.30 266.79 725.90 C 353.63 744.69 433.55 794.73 487.29 865.62 C 488.38 867.21 489.75 868.94 491.95 868.46 C 498.50 868.17 505.20 868.99 511.65 868.05 C 526.93 848.40 543.57 829.67 562.31 813.22 C 610.86 770.00 670.72 739.73 734.21 725.90 C 734.05 710.47 732.75 695.06 730.55 679.79 C 720.43 610.52 688.17 544.79 639.86 494.18 C 636.80 491.33 635.53 487.24 632.98 484.02 C 630.10 480.44 629.22 475.50 630.45 471.10 C 653.54 386.65 676.67 302.20 699.76 217.74 C 700.83 214.03 701.21 209.86 704.03 206.95 C 707.06 202.92 712.02 200.60 717.07 200.85 C 747.46 200.83 777.85 200.85 808.24 200.84 C 808.24 179.95 808.25 159.05 808.24 138.16 C 757.17 138.15 706.10 138.15 655.03 138.16 C 638.95 138.30 622.69 138.34 606.97 142.15 C 574.40 149.56 544.54 168.69 524.72 195.66 C 522.33 199.25 518.79 202.50 518.54 207.07 C 517.92 213.23 512.95 218.54 506.92 219.75 C 500.36 221.26 493.13 217.81 490.28 211.69 C 481.34 193.17 468.29 176.69 452.43 163.61 C 431.52 146.66 405.79 135.69 379.04 132.54 C 370.41 131.38 361.70 131.59 353.03 131.16 C 299.61 131.15 246.18 131.15 192.76 131.16 Z"/></g><text x="0" y="1015" fill="#000000" font-size="5px" font-weight="bold" font-family="'Helvetica Neue', Helvetica, Arial-Unicode, Arial, Sans-serif">Created by LSE Designs</text><text x="0" y="1020" fill="#000000" font-size="5px" font-weight="bold" font-family="'Helvetica Neue', Helvetica, Arial-Unicode, Arial, Sans-serif">from the Noun Project</text></svg>