<svg xmlns="http://www.w3.org/2000/svg" viewBox="0 0 500 625" version="1.1" x="0px" y="0px"><g><path fill="#000000" opacity="1.00" d=" M 96.00 81.52 C 103.25 75.62 110.39 69.57 117.02 62.99 C 129.89 77.02 139.72 93.37 149.97 109.31 C 174.06 105.71 198.58 104.30 222.86 106.67 C 241.95 108.53 260.99 111.17 279.75 115.15 C 282.22 119.36 284.64 123.98 284.35 129.02 C 283.97 133.34 281.49 137.05 279.07 140.51 C 257.52 134.57 235.32 130.58 212.92 130.22 C 194.88 129.84 176.83 130.59 158.84 132.01 C 164.12 151.26 169.28 170.56 173.33 190.11 C 177.73 210.67 181.93 231.28 185.96 251.93 C 193.63 256.93 201.23 262.04 208.51 267.59 C 219.56 275.77 228.05 286.73 236.74 297.25 C 247.37 310.18 258.09 323.41 271.88 333.14 C 285.82 343.00 301.56 350.21 317.93 355.00 C 319.49 351.10 321.24 347.14 324.32 344.19 C 326.73 341.78 329.86 340.33 332.93 338.94 C 332.94 333.73 333.14 328.25 335.61 323.53 C 337.12 320.55 339.53 318.19 341.95 315.94 C 341.25 311.39 340.64 306.71 341.56 302.15 C 342.43 298.65 344.78 295.80 346.92 293.00 C 346.23 289.75 345.48 286.33 346.39 283.04 C 347.06 280.50 349.10 278.72 350.89 276.94 C 349.92 273.70 348.80 270.36 349.28 266.94 C 349.61 264.52 351.41 262.73 352.92 260.96 C 371.28 268.64 389.63 276.35 408.02 283.98 C 409.72 287.75 411.21 291.82 410.87 296.03 C 410.56 299.05 408.77 301.61 407.11 304.05 C 408.72 307.83 410.14 311.87 409.75 316.05 C 409.35 319.51 407.10 322.32 405.08 325.01 C 406.69 329.79 407.78 335.07 406.19 340.00 C 405.41 342.88 403.53 345.25 401.84 347.64 C 420.17 343.76 438.46 339.13 455.65 331.57 C 461.43 329.17 467.03 326.34 472.72 323.74 C 474.88 322.63 479.07 322.53 478.90 325.90 C 477.97 338.05 474.49 349.84 471.46 361.60 C 466.77 375.90 457.07 388.02 446.14 398.12 C 426.62 415.79 402.17 427.21 377.03 434.41 C 356.38 439.13 334.97 437.27 314.06 435.61 C 287.67 433.24 261.45 429.22 234.99 427.73 C 200.35 426.30 165.70 428.02 131.05 428.15 C 107.30 428.03 83.49 426.79 60.02 423.01 C 47.25 347.66 34.56 272.29 21.81 196.93 C 21.06 191.90 20.97 185.74 25.07 182.06 C 29.37 178.83 35.24 179.82 40.13 180.87 C 73.25 190.81 105.27 204.17 136.00 219.99 C 136.19 212.30 136.14 204.61 135.95 196.92 C 135.44 176.84 131.92 156.95 127.01 137.52 C 122.99 139.00 118.98 140.49 114.99 142.02 C 110.01 136.47 106.15 128.29 110.07 121.08 C 113.24 118.83 116.75 117.09 120.01 114.96 C 113.82 102.62 105.24 91.70 96.00 81.52 Z"/></g><text x="0" y="515" fill="#000000" font-size="5px" font-weight="bold" font-family="'Helvetica Neue', Helvetica, Arial-Unicode, Arial, Sans-serif">Created by LSE Designs</text><text x="0" y="520" fill="#000000" font-size="5px" font-weight="bold" font-family="'Helvetica Neue', Helvetica, Arial-Unicode, Arial, Sans-serif">from the Noun Project</text></svg>