<svg xmlns="http://www.w3.org/2000/svg" viewBox="0 0 1000 1250" version="1.1" x="0px" y="0px"><g><path fill="#000000" opacity="1.00" d=" M 565.98 139.02 C 582.91 127.08 603.28 120.21 623.93 119.07 C 644.24 118.23 664.82 122.67 682.72 132.35 C 704.11 143.76 721.50 162.45 731.28 184.63 C 732.34 187.24 732.46 190.09 732.99 192.83 C 709.05 280.53 685.00 368.19 661.04 455.88 C 709.50 506.61 743.34 571.17 757.01 640.01 C 762.45 667.29 764.86 695.18 764.02 722.98 C 763.99 729.43 759.21 735.43 752.98 737.02 C 750.02 737.96 746.92 737.12 743.92 737.52 C 680.55 750.57 621.00 781.61 574.03 826.11 C 558.88 840.68 544.85 856.47 532.49 873.49 C 529.75 877.85 525.23 881.34 519.91 881.50 C 507.31 881.41 494.69 881.21 482.09 881.61 C 477.27 881.54 472.54 879.17 469.78 875.19 C 453.40 852.63 434.49 831.85 413.24 813.79 C 370.47 777.39 318.81 751.54 264.06 739.02 C 260.41 738.22 256.76 737.03 252.97 737.46 C 247.12 738.02 241.22 734.62 238.60 729.40 C 236.38 725.29 237.01 720.46 236.82 715.98 C 235.90 636.23 261.81 556.49 309.35 492.47 C 318.63 479.53 329.08 467.48 339.96 455.88 C 315.93 368.18 292.06 280.42 267.89 192.78 C 275.67 170.69 291.76 151.94 311.38 139.37 C 332.22 126.13 357.54 120.18 382.10 122.46 C 406.68 124.86 430.40 135.62 448.16 152.83 C 455.73 160.26 462.34 168.73 467.57 177.98 C 488.99 178.03 510.42 177.99 531.85 178.00 C 539.89 162.54 551.68 149.00 565.98 139.02 M 610.36 151.62 C 592.06 156.09 575.47 167.25 564.49 182.57 C 560.44 188.33 557.05 194.53 553.75 200.74 C 551.07 205.55 545.46 208.27 540.04 207.97 C 512.67 207.88 485.30 208.07 457.93 207.87 C 450.32 207.61 445.46 200.86 442.26 194.73 C 432.78 176.98 416.47 163.04 397.39 156.60 C 380.67 150.98 362.06 150.50 345.30 156.25 C 327.53 162.03 311.99 174.30 302.18 190.20 C 301.03 192.19 299.10 194.34 300.16 196.79 C 323.61 282.57 347.10 368.33 370.55 454.11 C 371.76 458.47 370.91 463.41 368.06 466.96 C 365.98 469.40 364.96 472.51 363.02 475.03 C 359.66 478.95 355.94 482.55 352.60 486.49 C 325.44 517.23 303.82 552.86 289.21 591.18 C 274.83 628.69 267.24 668.75 266.79 708.91 C 354.70 727.93 435.56 778.97 489.26 851.28 C 496.70 851.38 504.30 851.87 511.66 851.08 C 527.17 831.03 544.18 812.02 563.31 795.34 C 611.67 752.59 671.16 722.64 734.21 708.90 C 733.64 655.63 720.36 602.52 695.65 555.32 C 680.84 526.80 661.96 500.39 639.80 477.11 C 636.45 473.90 635.11 469.32 632.14 465.82 C 627.99 459.90 630.76 452.63 632.55 446.42 C 655.55 362.27 678.62 278.14 701.59 193.99 C 702.16 192.64 701.22 191.41 700.66 190.28 C 691.06 173.14 675.01 159.70 656.36 153.48 C 641.65 148.25 625.46 147.95 610.36 151.62 Z"/></g><text x="0" y="1015" fill="#000000" font-size="5px" font-weight="bold" font-family="'Helvetica Neue', Helvetica, Arial-Unicode, Arial, Sans-serif">Created by LSE Designs</text><text x="0" y="1020" fill="#000000" font-size="5px" font-weight="bold" font-family="'Helvetica Neue', Helvetica, Arial-Unicode, Arial, Sans-serif">from the Noun Project</text></svg>