<svg xmlns="http://www.w3.org/2000/svg" viewBox="0 0 720 900" version="1.1" x="0px" y="0px"><g><path fill="#000000" opacity="1.00" d=" M 275.97 92.27 C 303.27 90.09 330.78 91.18 357.92 94.73 C 361.64 95.13 365.33 94.32 369.03 94.04 C 392.62 91.96 416.41 90.97 440.05 92.84 C 469.36 95.67 498.43 100.90 527.00 108.00 C 537.54 124.43 548.15 140.82 558.97 157.07 C 567.45 170.13 577.32 182.52 582.73 197.30 C 584.68 202.37 586.22 207.60 587.15 212.96 C 577.19 218.89 566.28 223.41 554.81 225.32 C 539.24 227.71 523.37 227.40 507.71 226.15 C 504.05 226.11 500.71 228.11 497.02 227.91 C 492.00 228.40 488.00 224.50 483.09 224.31 C 477.12 223.73 471.30 225.77 466.02 228.38 C 464.67 242.96 462.79 257.53 459.55 271.82 C 457.24 282.45 453.34 294.22 443.06 299.64 C 461.56 338.00 479.24 376.76 496.05 415.90 C 511.52 452.32 526.61 489.00 538.11 526.90 C 545.04 549.67 551.18 572.69 556.00 596.01 C 515.82 609.10 474.43 618.46 432.58 624.39 C 405.24 628.10 377.59 630.16 349.99 629.21 C 308.45 627.45 267.43 619.37 227.40 608.47 C 206.14 602.56 185.07 595.92 164.48 587.99 C 171.96 545.22 185.83 503.77 202.78 463.88 C 227.23 407.70 255.13 353.10 283.96 299.07 C 278.99 296.30 274.46 292.64 271.17 287.96 C 267.49 282.94 265.82 276.85 264.04 270.98 C 259.55 255.00 256.92 238.55 255.01 222.08 C 250.65 225.59 245.68 228.80 239.96 229.32 C 234.20 229.78 228.57 227.90 223.33 225.70 C 218.98 224.03 216.43 219.77 212.32 217.70 C 209.84 216.16 206.83 216.22 204.03 216.17 C 199.38 216.23 194.57 216.36 190.20 218.14 C 188.10 219.42 186.08 220.98 183.63 221.52 C 173.92 223.96 164.04 226.14 153.99 226.29 C 145.44 225.99 138.82 219.57 133.47 213.53 C 142.17 194.35 151.09 175.27 160.37 156.37 C 169.17 136.89 182.09 119.70 195.39 103.11 C 222.05 98.20 248.93 94.37 275.97 92.27 Z"/></g><text x="0" y="735" fill="#000000" font-size="5px" font-weight="bold" font-family="'Helvetica Neue', Helvetica, Arial-Unicode, Arial, Sans-serif">Created by LSE Designs</text><text x="0" y="740" fill="#000000" font-size="5px" font-weight="bold" font-family="'Helvetica Neue', Helvetica, Arial-Unicode, Arial, Sans-serif">from the Noun Project</text></svg>