<svg xmlns="http://www.w3.org/2000/svg" viewBox="0 0 720 900" version="1.1" x="0px" y="0px"><g><path fill="#000000" opacity="1.00" d=" M 213.91 60.94 C 236.95 52.98 259.97 44.98 283.00 37.00 C 296.71 74.36 311.13 111.48 327.22 147.89 C 336.69 168.99 347.64 189.45 360.01 209.00 C 378.59 185.54 391.64 158.31 402.62 130.62 C 414.52 100.82 425.13 70.53 435.00 40.00 C 457.80 48.51 480.60 57.03 503.40 65.53 C 506.44 66.67 509.71 67.54 512.25 69.69 C 518.99 75.28 525.22 81.73 529.48 89.44 C 536.19 102.47 537.91 117.46 538.02 131.94 C 527.41 135.89 517.05 140.98 508.39 148.37 C 500.25 155.33 493.38 163.64 487.15 172.32 C 485.70 174.32 484.17 176.36 483.56 178.80 C 478.39 200.64 472.52 222.31 465.77 243.71 C 458.99 266.59 449.31 288.55 437.01 309.00 C 458.97 343.37 478.84 379.14 495.63 416.32 C 509.32 447.35 520.74 479.32 531.91 511.32 C 547.66 557.44 562.02 604.05 575.01 651.02 C 564.28 659.51 551.01 665.95 537.06 665.53 C 525.30 664.40 514.75 658.30 505.00 652.02 C 503.67 647.31 502.31 642.61 500.97 637.91 C 491.95 639.36 482.05 642.93 477.45 651.42 C 475.89 654.43 473.74 657.37 470.39 658.50 C 463.62 660.88 456.38 658.58 449.99 656.08 C 450.70 660.08 451.32 664.10 452.06 668.10 C 448.24 671.74 443.30 674.31 437.95 674.50 C 429.32 674.87 421.35 670.43 414.89 665.10 C 410.04 661.34 406.48 655.86 400.61 653.53 C 386.86 647.69 371.57 648.74 356.99 649.05 C 343.59 649.68 329.41 651.29 317.97 658.87 C 312.34 662.26 310.29 669.68 303.72 671.78 C 293.20 675.42 281.91 671.94 271.99 668.04 C 272.66 665.38 273.32 662.72 274.01 660.07 C 264.40 660.28 254.43 658.89 246.00 653.99 C 238.32 649.59 231.00 644.56 224.09 639.05 C 224.46 646.47 223.96 654.91 218.51 660.58 C 213.48 665.68 205.59 665.52 199.06 664.14 C 183.79 660.56 170.66 651.13 159.00 641.01 C 170.87 597.85 183.57 554.92 197.32 512.32 C 209.29 475.70 221.63 439.13 236.82 403.70 C 250.55 372.46 266.19 341.86 285.98 313.99 C 276.06 299.01 267.29 283.21 260.28 266.65 C 250.33 242.48 244.58 216.76 240.92 190.94 C 240.21 186.83 240.60 182.39 238.51 178.62 C 234.19 170.11 228.55 162.05 220.90 156.22 C 210.17 148.04 198.29 141.47 185.99 135.98 C 185.01 123.66 185.12 111.16 187.52 99.01 C 189.98 85.82 197.62 74.25 206.54 64.50 C 208.42 62.36 211.37 61.90 213.91 60.94 Z"/></g><text x="0" y="735" fill="#000000" font-size="5px" font-weight="bold" font-family="'Helvetica Neue', Helvetica, Arial-Unicode, Arial, Sans-serif">Created by LSE Designs</text><text x="0" y="740" fill="#000000" font-size="5px" font-weight="bold" font-family="'Helvetica Neue', Helvetica, Arial-Unicode, Arial, Sans-serif">from the Noun Project</text></svg>