<svg xmlns="http://www.w3.org/2000/svg" xmlns:xlink="http://www.w3.org/1999/xlink" version="1.1" x="0px" y="0px" viewBox="0 0 100 125" enable-background="new 0 0 100 100" xml:space="preserve"><path d="M42.7492676,47.3679199h-5.9428711V12.7302246c0-1.6264648-1.3237305-2.9501953-2.9501953-2.9501953H22.2097168  c-1.6264648,0-2.9501953,1.3237305-2.9501953,2.9501953v34.6376953h-5.9428711  c-2.1782227,0-3.9501953,1.7724609-3.9501953,3.9506836v34.9511719c0,2.1777344,1.7719727,3.9501953,3.9501953,3.9501953h29.4326172  c2.1782227,0,3.9501953-1.7724609,3.9501953-3.9501953V51.3186035  C46.6994629,49.1403809,44.9274902,47.3679199,42.7492676,47.3679199z M44.7990723,86.2697754  c0,1.1308594-0.9194336,2.0498047-2.0498047,2.0498047H13.3166504c-1.1303711,0-2.0498047-0.9189453-2.0498047-2.0498047V51.3186035  c0-1.1308594,0.9194336-2.050293,2.0498047-2.050293h29.4326172c1.1303711,0,2.0498047,0.9194336,2.0498047,2.050293V86.2697754z   M41.1066895,71.4807129v5.6689453c0,0.5244141-0.425293,0.9501953-0.9501953,0.9501953s-0.9501953-0.4257813-0.9501953-0.9501953  v-5.6689453c0-0.5244141,0.425293-0.9501953,0.9501953-0.9501953S41.1066895,70.9562988,41.1066895,71.4807129z   M41.1066895,57.1994629v9.0029297c0,0.5244141-0.425293,0.9501953-0.9501953,0.9501953s-0.9501953-0.4257813-0.9501953-0.9501953  v-9.0029297c0-0.4931641-0.4008789-0.8935547-0.8935547-0.8935547h-7.4604492c-0.4545288,0-0.8165283-0.3258667-0.9101563-0.7519531  c-0.0145264-0.065979-0.0400391-0.1279297-0.0400391-0.1982422c0-0.3141479,0.1627197-0.5794067,0.3978882-0.7524414  c0.1574707-0.1157837,0.3417969-0.1977539,0.5523071-0.1977539h7.4604492  C39.8532715,54.4055176,41.1066895,55.6594238,41.1066895,57.1994629z M86.6833496,47.3679199h-5.9423828V12.7302246  c0-1.6264648-1.3232422-2.9501953-2.9501953-2.9501953H66.1442871c-1.6269531,0-2.9501953,1.3237305-2.9501953,2.9501953v34.6376953  h-5.9433594c-2.1777344,0-3.9501953,1.7724609-3.9501953,3.9506836v34.9511719c0,2.1777344,1.7724609,3.9501953,3.9501953,3.9501953  h29.4326172c2.1777344,0,3.9501953-1.7724609,3.9501953-3.9501953V51.3186035  C90.6335449,49.1403809,88.861084,47.3679199,86.6833496,47.3679199z M65.0944824,12.7302246  c0-0.5791016,0.4707031-1.0498047,1.0498047-1.0498047h11.6464844c0.5791016,0,1.0498047,0.4707031,1.0498047,1.0498047v34.6376953  H65.0944824V12.7302246z M85.0407715,77.1496582c0,0.5244141-0.4257813,0.9501953-0.9501953,0.9501953  s-0.9501953-0.4257813-0.9501953-0.9501953v-5.6689453c0-0.5244141,0.4257813-0.9501953,0.9501953-0.9501953  s0.9501953,0.4257813,0.9501953,0.9501953V77.1496582z M85.0407715,66.2023926c0,0.5244141-0.4257813,0.9501953-0.9501953,0.9501953  s-0.9501953-0.4257813-0.9501953-0.9501953v-9.0029297c0-0.4931641-0.4003906-0.8935547-0.8935547-0.8935547h-7.4599609  c-0.4541016,0-0.8164063-0.3258667-0.9101563-0.7519531c-0.0145264-0.065979-0.0400391-0.1279297-0.0400391-0.1982422  c0-0.3141479,0.1627808-0.5794067,0.3980713-0.7524414c0.1574707-0.1157837,0.3418579-0.1977539,0.552124-0.1977539h7.4599609  c1.5400391,0,2.7939453,1.2539063,2.7939453,2.7939453V66.2023926z"/><text x="0" y="115" fill="#000000" font-size="5px" font-weight="bold" font-family="'Helvetica Neue', Helvetica, Arial-Unicode, Arial, Sans-serif">Created by Llisole</text><text x="0" y="120" fill="#000000" font-size="5px" font-weight="bold" font-family="'Helvetica Neue', Helvetica, Arial-Unicode, Arial, Sans-serif">from the Noun Project</text></svg>