<svg xmlns="http://www.w3.org/2000/svg" viewBox="0 0 500 625" version="1.1" x="0px" y="0px"><g><path fill="#000000" opacity="1.00" d=" M 43.19 24.98 C 92.09 17.95 141.56 14.01 190.98 15.68 C 214.69 16.32 238.38 17.83 262.00 20.01 C 266.19 67.49 273.08 114.73 282.25 161.51 C 290.31 201.93 300.19 242.07 313.53 281.10 C 321.52 304.05 330.49 326.73 341.86 348.23 C 350.05 362.94 364.68 372.67 379.72 379.39 C 400.69 388.84 423.42 393.28 445.01 400.97 C 452.90 404.05 461.40 407.42 466.64 414.43 C 472.21 423.01 472.46 434.32 468.67 443.66 C 467.59 446.03 466.81 449.12 463.98 449.93 C 429.37 464.65 393.00 475.36 355.84 481.26 C 321.81 486.47 286.57 487.31 252.99 478.86 C 245.56 476.84 237.89 474.94 231.36 470.67 C 221.87 464.65 214.80 455.63 208.67 446.38 C 197.49 429.39 189.36 410.45 176.62 394.49 C 156.00 369.77 132.27 347.61 106.00 328.99 C 106.82 379.50 107.68 430.01 108.49 480.53 C 87.00 480.55 65.51 480.52 44.02 480.54 C 40.04 414.53 36.09 348.52 32.17 282.51 C 31.83 278.61 30.38 274.91 30.01 271.02 C 28.19 256.39 28.64 241.58 29.45 226.89 C 30.49 211.30 37.86 197.26 42.87 182.73 C 46.78 171.90 48.04 160.37 48.28 148.92 C 49.53 109.91 47.04 70.89 44.01 32.02 C 43.84 29.66 43.47 27.32 43.19 24.98 Z"/></g><text x="0" y="515" fill="#000000" font-size="5px" font-weight="bold" font-family="'Helvetica Neue', Helvetica, Arial-Unicode, Arial, Sans-serif">Created by LSE Designs</text><text x="0" y="520" fill="#000000" font-size="5px" font-weight="bold" font-family="'Helvetica Neue', Helvetica, Arial-Unicode, Arial, Sans-serif">from the Noun Project</text></svg>