<svg xmlns="http://www.w3.org/2000/svg" xmlns:xlink="http://www.w3.org/1999/xlink" viewBox="0 0 55 73.75" version="1.1" x="0px" y="0px"><title>9 -Woman Handbag- (Solid)</title><desc>Created with Sketch.</desc><g stroke="none" stroke-width="1" fill="none" fill-rule="evenodd"><g transform="translate(-1081.000000, -345.000000)" fill="#000000"><g transform="translate(1081.000000, 345.000000)"><path d="M51.287,8.1941 C46.958,12.6111 36.226,15.8821 31.306,17.2021 C38.908,6.3721 44.407,3.0121 47.751,2.1401 C49.76,1.6141 51.224,2.7181 51.864,3.8231 C52.53,4.9711 52.728,6.7231 51.287,8.1941 M53.594,2.8191 C52.287,0.5651 49.793,-0.4609 47.245,0.2041 C41.583,1.6831 35.16,7.7581 28.157,18.2631 L27.852,18.7201 L1.36,40.4031 C0.741,40.9111 0.346,41.5871 0.164,42.3111 L21.282,37.9531 L27.445,20.1921 L29.21,19.7941 C29.271,19.7801 29.46,19.7361 29.743,19.6691 L22.8,39.6831 L0.241,44.3371 C0.374,44.7341 0.568,45.1161 0.847,45.4591 L10.627,57.4971 C11.34,58.3751 12.373,58.8331 13.418,58.8331 C14.177,58.8331 14.942,58.5911 15.597,58.0951 L40.56,39.1571 C42.112,37.9801 42.441,35.7421 41.294,34.1681 L30.571,19.4651 C34.796,18.4021 47.561,14.8521 52.715,9.5931 C54.55,7.7211 54.894,5.0621 53.594,2.8191"/></g></g></g><text x="0" y="74" fill="#000000" font-size="5px" font-weight="bold" font-family="'Helvetica Neue', Helvetica, Arial-Unicode, Arial, Sans-serif">Created by Ben Davis</text><text x="0" y="79" fill="#000000" font-size="5px" font-weight="bold" font-family="'Helvetica Neue', Helvetica, Arial-Unicode, Arial, Sans-serif">from the Noun Project</text></svg>